#!OML:ASF C:\ViconDB\ViconDB\414\Spring2016\041811\Spring2016.ASF
:FULLY-SPECIFIED
:DEGREES
313
root 9.19592 17.9608 -9.77778 392.451 -65.5923 335.276
lowerback 3.97685 0.686253 -8.91322
upperback -1.77694 0.342966 -1.07434
thorax -4.14912 0.383628 3.85282
lowerneck -10.3751 -9.69123 -21.8274
upperneck 12.9592 -15.6549 29.96
head 10.4105 -6.85898 12.6679
rclavicle 1.39149e-014 2.22639e-014
rhumerus -23.0113 -29.573 -7.93415
rradius 25.9426
rwrist 46.7124
rhand -26.8503 -11.8632
rfingers 7.12502
rthumb -0.275457 -41.8428
lclavicle 1.39149e-014 2.22639e-014
lhumerus -22.5003 -14.8803 8.8937
lradius 22.5371
lwrist -2.7617
lhand -28.3199 23.2018
lfingers 7.12502
lthumb -1.69492 53.1748
rfemur -45.545 -210.019 3.00385
rtibia 21.4701
rfoot -51.3984 -77.5206
rtoes -34.4248
lfemur -43.2833 7.28878 -11.6286
ltibia 54.3806
lfoot -22.6981 15.7683
ltoes -7.86771
314
root 9.24105 18.0253 -9.78327 394.199 -67.7114 333.107
lowerback 3.8797 0.588974 -8.98545
upperback -1.85286 0.210891 -1.12667
thorax -4.157 0.320897 3.84854
lowerneck -10.2263 -9.56134 -21.8937
upperneck 13.1823 -15.5876 30.0461
head 10.4515 -6.84914 12.7623
rclavicle 2.98177e-014 -2.22639e-014
rhumerus -23.9549 -28.8929 -7.13829
rradius 26.1286
rwrist 46.1941
rhand -27.2895 -12.369
rfingers 7.12502
rthumb -0.699671 -42.3476
lclavicle 2.98177e-014 -2.22639e-014
lhumerus -22.8234 -14.7679 8.70121
lradius 22.4812
lwrist -3.23448
lhand -28.2671 23.6909
lfingers 7.12502
lthumb -1.64392 53.6643
rfemur -46.1285 -210.303 3.39761
rtibia 23.2959
rfoot -39.7135 -77.3923
rtoes -29.2024
lfemur -41.9229 8.0783 -11.486
ltibia 53.4217
lfoot -22.5864 16.514
ltoes -7.8136
315
root 9.29443 18.0774 -9.79025 396.603 -70.0258 330.14
lowerback 3.90674 0.497122 -9.11973
upperback -1.86777 0.07703 -1.0965
thorax -4.1717 0.259239 3.96516
lowerneck -10.4252 -9.45838 -22.0335
upperneck 13.6169 -15.5023 30.0134
head 10.6228 -6.80765 12.831
rclavicle 1.17283e-014 1.90833e-014
rhumerus -24.4349 -28.7363 -6.40562
rradius 26.249
rwrist 45.4228
rhand -27.3899 -12.1808
rfingers 7.12502
rthumb -0.796646 -42.159
lclavicle 1.17283e-014 1.90833e-014
lhumerus -23.309 -14.0086 8.26981
lradius 22.1
lwrist -4.33416
lhand -28.2187 22.9218
lfingers 7.12502
lthumb -1.59718 52.8956
rfemur -46.7965 -210.396 3.74156
rtibia 25.3137
rfoot -30.5914 -76.2754
rtoes -22.704
lfemur -40.2836 8.88802 -11.2598
ltibia 52.3814
lfoot -22.5548 17.2521
ltoes -7.92067
316
root 9.34804 18.1609 -9.78922 399.721 -72.464 326.577
lowerback 3.87995 0.460326 -9.1759
upperback -1.90877 0.0177963 -1.19789
thorax -4.19223 0.230497 3.8947
lowerneck -10.4801 -9.34814 -22.034
upperneck 13.8938 -15.4171 29.9706
head 10.6951 -6.77313 12.8538
rclavicle 1.15295e-014 -3.18055e-015
rhumerus -25.1831 -29.7225 -5.24438
rradius 25.8307
rwrist 45.8485
rhand -28.5497 -10.4738
rfingers 7.12502
rthumb -1.91682 -40.445
lclavicle 1.15295e-014 -3.18055e-015
lhumerus -23.8146 -14.2866 7.92877
lradius 22.1628
lwrist -4.10002
lhand -28.0054 22.7565
lfingers 7.12502
lthumb -1.39109 52.7317
rfemur -47.2555 -210.706 3.86793
rtibia 27.3004
rfoot -22.5238 -74.6954
rtoes -14.005
lfemur -38.777 9.86732 -11.3167
ltibia 51.2642
lfoot -21.9737 18.3536
ltoes -8.32268
317
root 9.40756 18.2274 -9.79311 404.49 -74.8585 321.308
lowerback 3.80185 0.439378 -9.16297
upperback -1.85244 0.00063825 -1.2216
thorax -4.08598 0.214423 3.86431
lowerneck -10.7546 -9.22213 -21.9431
upperneck 14.1693 -15.2423 29.8052
head 10.7584 -6.67561 12.8107
rclavicle 2.8625e-014 4.13472e-014
rhumerus -25.8041 -29.7542 -4.35492
rradius 26.058
rwrist 47.1749
rhand -27.5855 -11.599
rfingers 7.12502
rthumb -0.985584 -41.5765
lclavicle 2.8625e-014 4.13472e-014
lhumerus -24.3066 -13.8729 7.55918
lradius 22.0224
lwrist -4.58657
lhand -28.0736 22.721
lfingers 7.12502
lthumb -1.45696 52.6957
rfemur -47.7337 -211.004 4.08079
rtibia 29.2781
rfoot -17.0621 -73.1453
rtoes -5.25619
lfemur -37.1034 10.4988 -11.051
ltibia 50.1568
lfoot -21.8369 19.4223
ltoes -8.67257
318
root 9.47105 18.2968 -9.7989 411.044 -77.2343 314.255
lowerback 3.75373 0.460692 -9.18002
upperback -1.89151 0.0216125 -1.35065
thorax -4.10295 0.223324 3.73716
lowerneck -10.611 -9.0425 -21.913
upperneck 14.3417 -15.093 29.8364
head 10.739 -6.62609 12.8703
rclavicle 6.95746e-015 2.54444e-014
rhumerus -26.6522 -28.6785 -3.76848
rradius 26.4282
rwrist 46.373
rhand -27.5568 -12.0698
rfingers 7.12502
rthumb -0.957864 -42.0474
lclavicle 6.95746e-015 2.54444e-014
lhumerus -24.7198 -14.1029 7.20472
lradius 22.1323
lwrist -4.29161
lhand -27.8218 23.2507
lfingers 7.12502
lthumb -1.2138 53.227
rfemur -48.0687 -211.205 4.22008
rtibia 31.0696
rfoot -10.6838 -71.4051
rtoes 0.251665
lfemur -35.4223 11.0435 -10.8998
ltibia 49.0674
lfoot -21.4934 20.6656
ltoes -8.92211
319
root 9.53936 18.3644 -9.80282 420.861 -79.3725 303.994
lowerback 3.68266 0.415648 -9.15069
upperback -1.8448 -0.0290532 -1.38732
thorax -4.00637 0.19056 3.68651
lowerneck -11.1418 -8.80433 -21.8679
upperneck 14.7717 -14.7588 29.7731
head 10.8777 -6.43393 12.9315
rclavicle -1.2921e-015 2.54444e-014
rhumerus -27.1202 -28.4636 -3.06649
rradius 26.5231
rwrist 46.4697
rhand -27.6403 -12.0963
rfingers 7.12502
rthumb -1.03846 -42.0735
lclavicle -1.2921e-015 2.54444e-014
lhumerus -25.4318 -14.0673 6.97717
lradius 22.2416
lwrist -3.80714
lhand -27.6977 23.5725
lfingers 7.12502
lthumb -1.09394 53.5495
rfemur -48.1627 -211.499 4.34375
rtibia 32.5778
rfoot -4.42713 -69.2486
rtoes 5.22794
lfemur -33.9253 11.5772 -10.7159
ltibia 48.1901
lfoot -21.0598 21.7481
ltoes -9.27103
320
root 9.60419 18.4351 -9.80275 435.466 -81.3775 289.075
lowerback 3.41613 0.43752 -9.25505
upperback -1.8541 0.00909517 -1.60188
thorax -3.87105 0.200398 3.5181
lowerneck -11.3852 -8.71132 -21.5224
upperneck 15.2168 -14.6185 29.1982
head 10.9298 -6.35154 12.6436
rclavicle -8.94531e-016 -9.54166e-015
rhumerus -27.8278 -27.5699 -2.54674
rradius 26.83
rwrist 45.6467
rhand -27.7421 -11.8508
rfingers 7.12502
rthumb -1.13678 -41.8275
lclavicle -8.94531e-016 -9.54166e-015
lhumerus -25.9289 -13.7427 6.50457
lradius 22.2376
lwrist -3.93807
lhand -27.5091 23.8598
lfingers 7.12502
lthumb -0.911823 53.8376
rfemur -47.9585 -212.091 3.90881
rtibia 33.7693
rfoot -6.45668 -67.702
rtoes 3.28624
lfemur -32.5524 11.8008 -10.8555
ltibia 47.5017
lfoot -20.6202 22.885
ltoes -10.5565
321
root 9.69103 18.4542 -9.81714 457.15 -82.2865 266.766
lowerback 3.37503 0.4747 -9.34863
upperback -1.67996 0.0670778 -1.63378
thorax -3.67298 0.216516 3.534
lowerneck -11.753 -8.52728 -21.388
upperneck 15.5105 -14.2991 28.878
head 10.9529 -6.18189 12.5453
rclavicle 1.39149e-015 1.27222e-014
rhumerus -28.1844 -27.2492 -2.18357
rradius 26.9996
rwrist 44.5625
rhand -27.5054 -12.9748
rfingers 7.12502
rthumb -0.90822 -42.9526
lclavicle 1.39149e-015 1.27222e-014
lhumerus -26.5898 -13.1375 6.12009
lradius 22.0423
lwrist -4.56497
lhand -27.6556 23.9221
lfingers 7.12502
lthumb -1.05332 53.8992
rfemur -47.8892 -212.799 3.58473
rtibia 34.5398
rfoot -1.6379 -66.1685
rtoes 11.2723
lfemur -31.1876 11.9567 -10.5686
ltibia 47.2451
lfoot -20.2457 24.0855
ltoes -11.2077
322
root 9.77776 18.4676 -9.82494 481.688 -81.8684 241.739
lowerback 3.21717 0.537838 -9.37914
upperback -1.51262 0.172817 -1.72192
thorax -3.42161 0.251229 3.45371
lowerneck -12.3277 -8.35009 -21.2207
upperneck 15.8917 -13.9942 28.5996
head 11.0608 -6.00113 12.4644
rclavicle 5.46658e-015 3.02153e-014
rhumerus -28.661 -27.6325 -1.58677
rradius 27.0076
rwrist 44.6645
rhand -27.4855 -12.926
rfingers 7.12502
rthumb -0.889016 -42.9039
lclavicle 5.46658e-015 3.02153e-014
lhumerus -27.2321 -12.6802 5.7644
lradius 21.846
lwrist -4.99094
lhand -27.8355 23.9854
lfingers 7.12502
lthumb -1.22703 53.9616
rfemur -47.2518 -213.266 3.38786
rtibia 35.0058
rfoot 0.448035 -65.3461
rtoes 14.1124
lfemur -30.0309 11.8865 -10.3205
ltibia 47.3261
lfoot -20.0977 25.0838
ltoes -12.0654
323
root 9.87271 18.4785 -9.83656 500.92 -80.3095 222.017
lowerback 3.35492 0.587195 -9.45277
upperback -1.52275 0.203251 -1.90893
thorax -3.51502 0.266222 3.29701
lowerneck -12.7487 -8.08231 -20.9285
upperneck 16.413 -13.6312 28.2484
head 11.1504 -5.80299 12.3505
rclavicle 3.72721e-015 6.83819e-014
rhumerus -29.2211 -27.5632 -1.06347
rradius 26.7502
rwrist 44.9836
rhand -27.9131 -12.7837
rfingers 7.12502
rthumb -1.30203 -42.7594
lclavicle 3.72721e-015 6.83819e-014
lhumerus -27.8417 -12.641 5.28962
lradius 21.6459
lwrist -4.90599
lhand -27.9096 23.8349
lfingers 7.12502
lthumb -1.29859 53.8107
rfemur -46.2761 -213.59 3.1626
rtibia 35.0872
rfoot 1.21327 -64.9096
rtoes 12.0994
lfemur -29.1597 11.6383 -10.1266
ltibia 47.7832
lfoot -19.4411 25.9972
ltoes -13.1744
